<?xml version="1.0" encoding="utf-8"?><svg xmlns="http://www.w3.org/2000/svg" xmlns:xlink="http://www.w3.org/1999/xlink"><symbol fill="none" viewBox="0 0 36 48" id="award" xmlns="http://www.w3.org/2000/svg"><g clip-path="url(#aaa)"><path d="M9.064 33.995c-.811-.815-.389-.585-2.345-1.111-.887-.24-1.668-.699-2.373-1.249L.11 42.064c-.41 1.01.356 2.106 1.44 2.065l4.918-.188 3.382 3.589a1.49 1.49 0 0 0 2.467-.465L17.176 35.1c-1.011.566-2.134.898-3.295.898-1.82 0-3.53-.711-4.817-2.003Zm26.663 8.069-4.234-10.429c-.706.551-1.486 1.01-2.374 1.249-1.966.529-1.535.298-2.344 1.11a6.756 6.756 0 0 1-4.818 2.004c-1.161 0-2.284-.332-3.296-.898l4.858 11.965a1.49 1.49 0 0 0 2.467.465l3.383-3.59 4.918.19c1.085.04 1.85-1.057 1.44-2.066Zm-11.181-10.19c1.426-1.458 1.59-1.333 3.62-1.889a3.802 3.802 0 0 0 2.657-2.717c.699-2.662.517-2.34 2.422-4.289.95-.97 1.32-2.385.973-3.71-.697-2.661-.698-2.29 0-4.953a3.901 3.901 0 0 0-.973-3.71c-1.904-1.949-1.723-1.628-2.421-4.29A3.802 3.802 0 0 0 28.165 3.6c-2.602-.713-2.288-.527-4.195-2.476A3.703 3.703 0 0 0 20.34.13c-2.601.712-2.238.713-4.844 0a3.7 3.7 0 0 0-3.63.994C9.963 3.071 10.277 2.886 7.673 3.6a3.802 3.802 0 0 0-2.657 2.717c-.697 2.662-.517 2.341-2.422 4.29a3.899 3.899 0 0 0-.973 3.71c.698 2.659.698 2.287 0 4.952a3.903 3.903 0 0 0 .973 3.711c1.905 1.948 1.724 1.627 2.422 4.29a3.802 3.802 0 0 0 2.657 2.716c2.089.572 2.245.482 3.62 1.888a3.697 3.697 0 0 0 4.642.546 3.692 3.692 0 0 1 3.97 0 3.696 3.696 0 0 0 4.64-.546ZM9.114 16.493c0-4.971 3.942-9.001 8.805-9.001 4.863 0 8.805 4.03 8.805 9.002 0 4.971-3.942 9.001-8.805 9.001-4.863 0-8.805-4.03-8.805-9.001Z" fill="currentColor"/></g><defs><clipPath id="aaa"><path fill="currentColor" d="M0 0h35.84v48H0z"/></clipPath></defs></symbol><symbol fill="none" viewBox="0 0 36 48" id="award" xmlns="http://www.w3.org/2000/svg"><g clip-path="url(#apa)"><path d="M9.064 33.995c-.811-.815-.389-.585-2.345-1.111-.887-.24-1.668-.699-2.373-1.249L.11 42.064c-.41 1.01.356 2.106 1.44 2.065l4.918-.188 3.382 3.589a1.49 1.49 0 0 0 2.467-.465L17.176 35.1c-1.011.566-2.134.898-3.295.898-1.82 0-3.53-.711-4.817-2.003Zm26.663 8.069-4.234-10.429c-.706.551-1.486 1.01-2.374 1.249-1.966.529-1.535.298-2.344 1.11a6.756 6.756 0 0 1-4.818 2.004c-1.161 0-2.284-.332-3.296-.898l4.858 11.965a1.49 1.49 0 0 0 2.467.465l3.383-3.59 4.918.19c1.085.04 1.85-1.057 1.44-2.066Zm-11.181-10.19c1.426-1.458 1.59-1.333 3.62-1.889a3.802 3.802 0 0 0 2.657-2.717c.699-2.662.517-2.34 2.422-4.289.95-.97 1.32-2.385.973-3.71-.697-2.661-.698-2.29 0-4.953a3.901 3.901 0 0 0-.973-3.71c-1.904-1.949-1.723-1.628-2.421-4.29A3.802 3.802 0 0 0 28.165 3.6c-2.602-.713-2.288-.527-4.195-2.476A3.703 3.703 0 0 0 20.34.13c-2.601.712-2.238.713-4.844 0a3.7 3.7 0 0 0-3.63.994C9.963 3.071 10.277 2.886 7.673 3.6a3.802 3.802 0 0 0-2.657 2.717c-.697 2.662-.517 2.341-2.422 4.29a3.899 3.899 0 0 0-.973 3.71c.698 2.659.698 2.287 0 4.952a3.903 3.903 0 0 0 .973 3.711c1.905 1.948 1.724 1.627 2.422 4.29a3.802 3.802 0 0 0 2.657 2.716c2.089.572 2.245.482 3.62 1.888a3.697 3.697 0 0 0 4.642.546 3.692 3.692 0 0 1 3.97 0 3.696 3.696 0 0 0 4.64-.546ZM9.114 16.493c0-4.971 3.942-9.001 8.805-9.001 4.863 0 8.805 4.03 8.805 9.002 0 4.971-3.942 9.001-8.805 9.001-4.863 0-8.805-4.03-8.805-9.001Z" fill="currentColor"/></g><defs><clipPath id="apa"><path fill="currentColor" d="M0 0h35.84v48H0z"/></clipPath></defs></symbol><symbol fill="none" viewBox="0 0 24 24" id="facebook-filled" xmlns="http://www.w3.org/2000/svg"><g clip-path="url(#aba)"><path d="M23.04 0H.96A.959.959 0 0 0 0 .96v22.08c0 .531.429.96.96.96h22.08c.531 0 .96-.429.96-.96V.96a.959.959 0 0 0-.96-.96Zm-2.772 7.005h-1.917c-1.503 0-1.794.714-1.794 1.764v2.313h3.588l-.468 3.621h-3.12V24h-3.741v-9.294H9.687v-3.624h3.129v-2.67c0-3.099 1.893-4.788 4.659-4.788 1.326 0 2.463.099 2.796.144v3.237h-.003Z" fill="#335BF5"/></g><defs><clipPath id="aba"><path fill="#fff" d="M0 0h24v24H0z"/></clipPath></defs></symbol><symbol fill="none" viewBox="0 0 24 24" id="facebook-filled" xmlns="http://www.w3.org/2000/svg"><g clip-path="url(#aqa)"><path d="M23.04 0H.96A.959.959 0 0 0 0 .96v22.08c0 .531.429.96.96.96h22.08c.531 0 .96-.429.96-.96V.96a.959.959 0 0 0-.96-.96Zm-2.772 7.005h-1.917c-1.503 0-1.794.714-1.794 1.764v2.313h3.588l-.468 3.621h-3.12V24h-3.741v-9.294H9.687v-3.624h3.129v-2.67c0-3.099 1.893-4.788 4.659-4.788 1.326 0 2.463.099 2.796.144v3.237h-.003Z" fill="#335BF5"/></g><defs><clipPath id="aqa"><path fill="#fff" d="M0 0h24v24H0z"/></clipPath></defs></symbol><symbol fill="none" viewBox="0 0 32 32" id="group" xmlns="http://www.w3.org/2000/svg"><path fill-rule="evenodd" clip-rule="evenodd" d="M18.237 8.772a4.25 4.25 0 1 1-4.72-7.068 4.25 4.25 0 0 1 4.722 7.068h-.002Zm-1.18-5.3a2.125 2.125 0 1 0-2.363 3.53 2.125 2.125 0 0 0 2.363-3.528v-.002Zm5.547.064a3.175 3.175 0 0 1 4.026.399 3.215 3.215 0 0 1-1.034 5.228 3.17 3.17 0 0 1-3.475-.693 3.213 3.213 0 0 1 .485-4.932l-.002-.002Zm1.02 3.42a1.061 1.061 0 1 0 1.498-1.504 1.082 1.082 0 0 0-.746-.318 1.06 1.06 0 0 0-1.063 1.068c.001.283.112.555.31.757v-.002ZM5.654 25.399h3.847v2.135H5.655a2.543 2.543 0 0 1-1.79-.759 2.571 2.571 0 0 1-.74-1.806v-3.846a2.118 2.118 0 0 1-1.508-.706 2.139 2.139 0 0 1-.616-1.561v-4.637a3.844 3.844 0 0 1 1.105-2.673 3.75 3.75 0 0 1 2.635-1.112h3.91a6.188 6.188 0 0 0-1.169 2.138H4.741a1.696 1.696 0 0 0-1.148.493c-.3.309-.468.723-.467 1.154v4.743H5.25v6.005a.43.43 0 0 0 .106.321.51.51 0 0 0 .298.106v.005Zm15.513-13.851a3.75 3.75 0 0 0-2.656-1.112h-5.27a3.75 3.75 0 0 0-2.635 1.112A3.843 3.843 0 0 0 9.5 14.22v6.753c-.003.58.218 1.139.616 1.56a2.124 2.124 0 0 0 1.509.705v4.937a2.555 2.555 0 0 0 .744 1.817 2.56 2.56 0 0 0 1.38.663H18a2.444 2.444 0 0 0 2.126-2.48v-4.939a2.118 2.118 0 0 0 1.509-.705 2.139 2.139 0 0 0 .616-1.56v-6.753a3.825 3.825 0 0 0-1.084-2.673v.002Zm-1.041 9.53H18v7.098a.43.43 0 0 1-.128.297.361.361 0 0 1-.297.128h-3.421a.446.446 0 0 1-.425-.425v-7.098h-2.104v-6.86c0-.43.168-.845.467-1.153.306-.304.716-.48 1.148-.493h5.27a1.653 1.653 0 0 1 1.498 1.02c.08.199.12.412.117.627v6.86Zm5.971 6.454h-3.846v-2.136h3.825a.51.51 0 0 0 .297-.106.424.424 0 0 0 .128-.323v-6.005h2.125v-4.743c0-.431-.167-.845-.468-1.154a1.696 1.696 0 0 0-1.147-.493H24.27a6.184 6.184 0 0 0-1.17-2.138h3.91c.991.01 1.938.409 2.636 1.112a3.844 3.844 0 0 1 1.105 2.673v4.637c0 .58-.22 1.136-.614 1.557a2.236 2.236 0 0 1-1.511.708v3.846a2.57 2.57 0 0 1-.74 1.806 2.544 2.544 0 0 1-1.789.759ZM7.376 2.996a3.175 3.175 0 0 0-2.945 1.98 3.224 3.224 0 0 0 .692 3.492 3.181 3.181 0 0 0 5.44-2.266 3.212 3.212 0 0 0-1.967-2.961 3.179 3.179 0 0 0-1.22-.245Zm0 4.275a1.06 1.06 0 0 1-1.063-1.069 1.071 1.071 0 0 1 1.063-1.068 1.082 1.082 0 0 1 1.062 1.068 1.071 1.071 0 0 1-1.062 1.07Z" fill="currentColor"/></symbol><symbol fill="none" viewBox="0 0 32 32" id="group" xmlns="http://www.w3.org/2000/svg"><path fill-rule="evenodd" clip-rule="evenodd" d="M18.237 8.772a4.25 4.25 0 1 1-4.72-7.068 4.25 4.25 0 0 1 4.722 7.068h-.002Zm-1.18-5.3a2.125 2.125 0 1 0-2.363 3.53 2.125 2.125 0 0 0 2.363-3.528v-.002Zm5.547.064a3.175 3.175 0 0 1 4.026.399 3.215 3.215 0 0 1-1.034 5.228 3.17 3.17 0 0 1-3.475-.693 3.213 3.213 0 0 1 .485-4.932l-.002-.002Zm1.02 3.42a1.061 1.061 0 1 0 1.498-1.504 1.082 1.082 0 0 0-.746-.318 1.06 1.06 0 0 0-1.063 1.068c.001.283.112.555.31.757v-.002ZM5.654 25.399h3.847v2.135H5.655a2.543 2.543 0 0 1-1.79-.759 2.571 2.571 0 0 1-.74-1.806v-3.846a2.118 2.118 0 0 1-1.508-.706 2.139 2.139 0 0 1-.616-1.561v-4.637a3.844 3.844 0 0 1 1.105-2.673 3.75 3.75 0 0 1 2.635-1.112h3.91a6.188 6.188 0 0 0-1.169 2.138H4.741a1.696 1.696 0 0 0-1.148.493c-.3.309-.468.723-.467 1.154v4.743H5.25v6.005a.43.43 0 0 0 .106.321.51.51 0 0 0 .298.106v.005Zm15.513-13.851a3.75 3.75 0 0 0-2.656-1.112h-5.27a3.75 3.75 0 0 0-2.635 1.112A3.843 3.843 0 0 0 9.5 14.22v6.753c-.003.58.218 1.139.616 1.56a2.124 2.124 0 0 0 1.509.705v4.937a2.555 2.555 0 0 0 .744 1.817 2.56 2.56 0 0 0 1.38.663H18a2.444 2.444 0 0 0 2.126-2.48v-4.939a2.118 2.118 0 0 0 1.509-.705 2.139 2.139 0 0 0 .616-1.56v-6.753a3.825 3.825 0 0 0-1.084-2.673v.002Zm-1.041 9.53H18v7.098a.43.43 0 0 1-.128.297.361.361 0 0 1-.297.128h-3.421a.446.446 0 0 1-.425-.425v-7.098h-2.104v-6.86c0-.43.168-.845.467-1.153.306-.304.716-.48 1.148-.493h5.27a1.653 1.653 0 0 1 1.498 1.02c.08.199.12.412.117.627v6.86Zm5.971 6.454h-3.846v-2.136h3.825a.51.51 0 0 0 .297-.106.424.424 0 0 0 .128-.323v-6.005h2.125v-4.743c0-.431-.167-.845-.468-1.154a1.696 1.696 0 0 0-1.147-.493H24.27a6.184 6.184 0 0 0-1.17-2.138h3.91c.991.01 1.938.409 2.636 1.112a3.844 3.844 0 0 1 1.105 2.673v4.637c0 .58-.22 1.136-.614 1.557a2.236 2.236 0 0 1-1.511.708v3.846a2.57 2.57 0 0 1-.74 1.806 2.544 2.544 0 0 1-1.789.759ZM7.376 2.996a3.175 3.175 0 0 0-2.945 1.98 3.224 3.224 0 0 0 .692 3.492 3.181 3.181 0 0 0 5.44-2.266 3.212 3.212 0 0 0-1.967-2.961 3.179 3.179 0 0 0-1.22-.245Zm0 4.275a1.06 1.06 0 0 1-1.063-1.069 1.071 1.071 0 0 1 1.063-1.068 1.082 1.082 0 0 1 1.062 1.068 1.071 1.071 0 0 1-1.062 1.07Z" fill="currentColor"/></symbol><symbol fill="none" viewBox="0 0 24 24" id="instagram-outlined" xmlns="http://www.w3.org/2000/svg"><g clip-path="url(#ada)"><path d="M12.002 5.847A6.144 6.144 0 0 0 5.849 12a6.144 6.144 0 0 0 6.153 6.153A6.144 6.144 0 0 0 18.155 12a6.144 6.144 0 0 0-6.153-6.153Zm0 10.152a4.007 4.007 0 0 1-4-3.999 4.007 4.007 0 0 1 4-3.999 4.007 4.007 0 0 1 3.999 4 4.007 4.007 0 0 1-4 3.998Zm6.405-11.838c-.795 0-1.437.642-1.437 1.437s.642 1.437 1.437 1.437a1.433 1.433 0 0 0 1.328-1.987 1.435 1.435 0 0 0-1.328-.887Zm5.589 7.84c0-1.657.015-3.298-.078-4.95-.093-1.92-.531-3.625-1.935-5.029C20.576.615 18.875.18 16.955.087 15.299-.006 13.658.01 12.005.01c-1.656 0-3.297-.015-4.95.078C5.135.18 3.43.618 2.027 2.022.62 3.43.185 5.13.092 7.05-.001 8.706.014 10.347.014 12s-.015 3.297.078 4.95c.093 1.92.53 3.624 1.935 5.028 1.407 1.407 3.108 1.842 5.028 1.935 1.656.093 3.297.078 4.95.078 1.656 0 3.297.015 4.95-.078 1.92-.093 3.624-.53 5.028-1.935 1.407-1.407 1.842-3.108 1.935-5.028.096-1.653.078-3.294.078-4.95Zm-2.64 7.073a3.812 3.812 0 0 1-.906 1.374 3.838 3.838 0 0 1-1.374.906c-1.578.627-5.325.486-7.074.486-1.75 0-5.5.141-7.077-.483a3.812 3.812 0 0 1-1.374-.906 3.838 3.838 0 0 1-.906-1.374c-.624-1.58-.483-5.328-.483-7.077 0-1.749-.141-5.499.483-7.077.219-.546.483-.954.906-1.374.423-.42.828-.687 1.374-.906 1.578-.624 5.328-.483 7.077-.483 1.749 0 5.499-.14 7.077.483.546.22.954.483 1.374.906.423.423.687.828.906 1.374.624 1.578.483 5.328.483 7.077 0 1.75.14 5.496-.486 7.074Z" fill="#E61F5A"/></g><defs><clipPath id="ada"><path fill="#fff" d="M0 0h24v24H0z"/></clipPath></defs></symbol><symbol fill="none" viewBox="0 0 24 24" id="instagram-outlined" xmlns="http://www.w3.org/2000/svg"><g clip-path="url(#asa)"><path d="M12.002 5.847A6.144 6.144 0 0 0 5.849 12a6.144 6.144 0 0 0 6.153 6.153A6.144 6.144 0 0 0 18.155 12a6.144 6.144 0 0 0-6.153-6.153Zm0 10.152a4.007 4.007 0 0 1-4-3.999 4.007 4.007 0 0 1 4-3.999 4.007 4.007 0 0 1 3.999 4 4.007 4.007 0 0 1-4 3.998Zm6.405-11.838c-.795 0-1.437.642-1.437 1.437s.642 1.437 1.437 1.437a1.433 1.433 0 0 0 1.328-1.987 1.435 1.435 0 0 0-1.328-.887Zm5.589 7.84c0-1.657.015-3.298-.078-4.95-.093-1.92-.531-3.625-1.935-5.029C20.576.615 18.875.18 16.955.087 15.299-.006 13.658.01 12.005.01c-1.656 0-3.297-.015-4.95.078C5.135.18 3.43.618 2.027 2.022.62 3.43.185 5.13.092 7.05-.001 8.706.014 10.347.014 12s-.015 3.297.078 4.95c.093 1.92.53 3.624 1.935 5.028 1.407 1.407 3.108 1.842 5.028 1.935 1.656.093 3.297.078 4.95.078 1.656 0 3.297.015 4.95-.078 1.92-.093 3.624-.53 5.028-1.935 1.407-1.407 1.842-3.108 1.935-5.028.096-1.653.078-3.294.078-4.95Zm-2.64 7.073a3.812 3.812 0 0 1-.906 1.374 3.838 3.838 0 0 1-1.374.906c-1.578.627-5.325.486-7.074.486-1.75 0-5.5.141-7.077-.483a3.812 3.812 0 0 1-1.374-.906 3.838 3.838 0 0 1-.906-1.374c-.624-1.58-.483-5.328-.483-7.077 0-1.749-.141-5.499.483-7.077.219-.546.483-.954.906-1.374.423-.42.828-.687 1.374-.906 1.578-.624 5.328-.483 7.077-.483 1.749 0 5.499-.14 7.077.483.546.22.954.483 1.374.906.423.423.687.828.906 1.374.624 1.578.483 5.328.483 7.077 0 1.75.14 5.496-.486 7.074Z" fill="#E61F5A"/></g><defs><clipPath id="asa"><path fill="#fff" d="M0 0h24v24H0z"/></clipPath></defs></symbol><symbol fill="none" viewBox="0 0 24 31" id="location" xmlns="http://www.w3.org/2000/svg"><g clip-path="url(#aea)" fill="currentColor"><path d="M12 18.25c3.309 0 6-2.691 6-6s-2.691-6-6-6-6 2.691-6 6 2.691 6 6 6Zm0-9c1.654 0 3 1.345 3 3 0 1.654-1.346 3-3 3-1.655 0-3-1.346-3-3 0-1.655 1.345-3 3-3Z"/><path d="M11.13 29.97a1.497 1.497 0 0 0 1.74 0c.456-.322 11.173-8.06 11.13-17.72 0-6.617-5.384-12-12-12S0 5.633 0 12.242c-.043 9.668 10.674 17.406 11.13 17.729ZM12 3.25c4.963 0 9 4.036 9 9.007.031 6.657-6.582 12.635-9 14.595-2.416-1.962-9.031-7.94-9-14.602 0-4.964 4.037-9 9-9Z"/></g><defs><clipPath id="aea"><path fill="transparent" transform="translate(0 .25)" d="M0 0h24v30H0z"/></clipPath></defs></symbol><symbol fill="none" viewBox="0 0 24 31" id="location" xmlns="http://www.w3.org/2000/svg"><g clip-path="url(#ata)" fill="currentColor"><path d="M12 18.25c3.309 0 6-2.691 6-6s-2.691-6-6-6-6 2.691-6 6 2.691 6 6 6Zm0-9c1.654 0 3 1.345 3 3 0 1.654-1.346 3-3 3-1.655 0-3-1.346-3-3 0-1.655 1.345-3 3-3Z"/><path d="M11.13 29.97a1.497 1.497 0 0 0 1.74 0c.456-.322 11.173-8.06 11.13-17.72 0-6.617-5.384-12-12-12S0 5.633 0 12.242c-.043 9.668 10.674 17.406 11.13 17.729ZM12 3.25c4.963 0 9 4.036 9 9.007.031 6.657-6.582 12.635-9 14.595-2.416-1.962-9.031-7.94-9-14.602 0-4.964 4.037-9 9-9Z"/></g><defs><clipPath id="ata"><path fill="transparent" transform="translate(0 .25)" d="M0 0h24v30H0z"/></clipPath></defs></symbol><symbol fill="none" viewBox="0 0 24 18" id="logo-youtube" xmlns="http://www.w3.org/2000/svg"><g clip-path="url(#afa)"><path d="M23.47 2.932a3.192 3.192 0 0 0-.775-1.41 2.966 2.966 0 0 0-1.34-.814C19.488.177 11.988.177 11.988.177s-7.5 0-9.367.53a2.966 2.966 0 0 0-1.34.815c-.372.39-.639.877-.775 1.41A34.16 34.16 0 0 0 0 9a34.161 34.161 0 0 0 .505 6.068c.136.533.403 1.02.775 1.41.37.39.833.67 1.34.814 1.866.531 9.367.531 9.367.531s7.5 0 9.367-.531a2.966 2.966 0 0 0 1.34-.815c.371-.39.639-.876.775-1.409.348-2.002.518-4.033.505-6.068a34.163 34.163 0 0 0-.505-6.068Zm-13.88 9.85V5.218l6.225 3.78-6.225 3.782Z" fill="#E42F08"/></g><defs><clipPath id="afa"><path fill="#fff" transform="translate(0 .158)" d="M0 0h24v17.684H0z"/></clipPath></defs></symbol><symbol fill="none" viewBox="0 0 24 18" id="logo-youtube" xmlns="http://www.w3.org/2000/svg"><g clip-path="url(#aua)"><path d="M23.47 2.932a3.192 3.192 0 0 0-.775-1.41 2.966 2.966 0 0 0-1.34-.814C19.488.177 11.988.177 11.988.177s-7.5 0-9.367.53a2.966 2.966 0 0 0-1.34.815c-.372.39-.639.877-.775 1.41A34.16 34.16 0 0 0 0 9a34.161 34.161 0 0 0 .505 6.068c.136.533.403 1.02.775 1.41.37.39.833.67 1.34.814 1.866.531 9.367.531 9.367.531s7.5 0 9.367-.531a2.966 2.966 0 0 0 1.34-.815c.371-.39.639-.876.775-1.409.348-2.002.518-4.033.505-6.068a34.163 34.163 0 0 0-.505-6.068Zm-13.88 9.85V5.218l6.225 3.78-6.225 3.782Z" fill="#E42F08"/></g><defs><clipPath id="aua"><path fill="#fff" transform="translate(0 .158)" d="M0 0h24v17.684H0z"/></clipPath></defs></symbol><symbol fill="none" viewBox="0 0 48 38" id="notebook" xmlns="http://www.w3.org/2000/svg"><g clip-path="url(#aga)" fill="currentColor"><path d="M29.142 8.624h11.997v3.445H29.142V8.624ZM29.142 17.237h11.997v3.446H29.142v-3.446ZM29.142 25.85h11.997v3.446H29.142V25.85Z"/><path d="M44.567.011H3.432c-.909.001-1.78.364-2.423 1.01A3.458 3.458 0 0 0 .004 3.457v31.007c0 .914.362 1.79 1.005 2.436a3.423 3.423 0 0 0 2.423 1.01h41.135a3.424 3.424 0 0 0 2.423-1.01 3.459 3.459 0 0 0 1.005-2.436V3.457c0-.914-.362-1.79-1.005-2.436a3.422 3.422 0 0 0-2.423-1.01ZM3.432 3.457h18.854v31.007H3.432V3.457Zm22.282 31.007V3.457h18.853l.004 31.007H25.714Z"/></g><defs><clipPath id="aga"><path fill="currentColor" d="M0 0h48v37.92H0z"/></clipPath></defs></symbol><symbol fill="none" viewBox="0 0 48 38" id="notebook" xmlns="http://www.w3.org/2000/svg"><g clip-path="url(#ava)" fill="currentColor"><path d="M29.142 8.624h11.997v3.445H29.142V8.624ZM29.142 17.237h11.997v3.446H29.142v-3.446ZM29.142 25.85h11.997v3.446H29.142V25.85Z"/><path d="M44.567.011H3.432c-.909.001-1.78.364-2.423 1.01A3.458 3.458 0 0 0 .004 3.457v31.007c0 .914.362 1.79 1.005 2.436a3.423 3.423 0 0 0 2.423 1.01h41.135a3.424 3.424 0 0 0 2.423-1.01 3.459 3.459 0 0 0 1.005-2.436V3.457c0-.914-.362-1.79-1.005-2.436a3.422 3.422 0 0 0-2.423-1.01ZM3.432 3.457h18.854v31.007H3.432V3.457Zm22.282 31.007V3.457h18.853l.004 31.007H25.714Z"/></g><defs><clipPath id="ava"><path fill="currentColor" d="M0 0h48v37.92H0z"/></clipPath></defs></symbol><symbol fill="none" viewBox="0 0 70 71" id="paper-plane" xmlns="http://www.w3.org/2000/svg"><path d="M68.348 1.162a2.853 2.853 0 0 0-1.417-.804 2.78 2.78 0 0 0-1.611.114L1.862 24.471c-.548.216-1.019.6-1.351 1.1A3.084 3.084 0 0 0 0 27.277c0 .608.178 1.203.51 1.704.333.5.804.885 1.352 1.1l27.69 11.52L40.63 70.398a2.983 2.983 0 0 0 1.026 1.35 2.81 2.81 0 0 0 1.57.54 2.811 2.811 0 0 0 1.622-.561 2.99 2.99 0 0 0 1.032-1.419L68.954 4.312c.197-.53.244-1.109.137-1.667a3.043 3.043 0 0 0-.743-1.483ZM43.225 60.889 35.177 39.89l13.817-14.37-4.067-4.229-13.932 14.49-20.076-8.49L61.483 8.3 43.225 60.89Z" fill="currentColor"/></symbol><symbol fill="none" viewBox="0 0 70 71" id="paper-plane" xmlns="http://www.w3.org/2000/svg"><path d="M68.348 1.162a2.853 2.853 0 0 0-1.417-.804 2.78 2.78 0 0 0-1.611.114L1.862 24.471c-.548.216-1.019.6-1.351 1.1A3.084 3.084 0 0 0 0 27.277c0 .608.178 1.203.51 1.704.333.5.804.885 1.352 1.1l27.69 11.52L40.63 70.398a2.983 2.983 0 0 0 1.026 1.35 2.81 2.81 0 0 0 1.57.54 2.811 2.811 0 0 0 1.622-.561 2.99 2.99 0 0 0 1.032-1.419L68.954 4.312c.197-.53.244-1.109.137-1.667a3.043 3.043 0 0 0-.743-1.483ZM43.225 60.889 35.177 39.89l13.817-14.37-4.067-4.229-13.932 14.49-20.076-8.49L61.483 8.3 43.225 60.89Z" fill="currentColor"/></symbol><symbol fill="none" viewBox="0 0 72 72" id="phone" xmlns="http://www.w3.org/2000/svg"><path d="M55.929 38.995a3.785 3.785 0 0 0-5.357 0l-6.039 6.038c-2.8-.833-8.023-2.727-11.334-6.038-3.311-3.311-5.206-8.536-6.039-11.335l6.039-6.039a3.784 3.784 0 0 0 0-5.357L18.045 1.111a3.784 3.784 0 0 0-5.357 0L2.414 11.385a7.571 7.571 0 0 0-2.22 5.436c.087 5.395 1.516 24.132 16.283 38.9C31.244 70.487 49.98 71.911 55.38 72.002h.106c2 0 3.89-.788 5.323-2.22l10.274-10.274a3.785 3.785 0 0 0 0-5.357L55.929 38.995Zm-.481 25.427c-4.728-.08-20.904-1.348-33.614-14.062C9.082 37.608 7.847 21.375 7.77 16.742l7.596-7.596 9.796 9.797-4.898 4.898a3.789 3.789 0 0 0-1.03 3.455c.09.436 2.314 10.767 8.603 17.056 6.289 6.288 16.62 8.512 17.055 8.603a3.754 3.754 0 0 0 3.456-1.027l4.902-4.898 9.796 9.797-7.6 7.595Z" fill="currentColor"/></symbol><symbol fill="none" viewBox="0 0 72 72" id="phone" xmlns="http://www.w3.org/2000/svg"><path d="M55.929 38.995a3.785 3.785 0 0 0-5.357 0l-6.039 6.038c-2.8-.833-8.023-2.727-11.334-6.038-3.311-3.311-5.206-8.536-6.039-11.335l6.039-6.039a3.784 3.784 0 0 0 0-5.357L18.045 1.111a3.784 3.784 0 0 0-5.357 0L2.414 11.385a7.571 7.571 0 0 0-2.22 5.436c.087 5.395 1.516 24.132 16.283 38.9C31.244 70.487 49.98 71.911 55.38 72.002h.106c2 0 3.89-.788 5.323-2.22l10.274-10.274a3.785 3.785 0 0 0 0-5.357L55.929 38.995Zm-.481 25.427c-4.728-.08-20.904-1.348-33.614-14.062C9.082 37.608 7.847 21.375 7.77 16.742l7.596-7.596 9.796 9.797-4.898 4.898a3.789 3.789 0 0 0-1.03 3.455c.09.436 2.314 10.767 8.603 17.056 6.289 6.288 16.62 8.512 17.055 8.603a3.754 3.754 0 0 0 3.456-1.027l4.902-4.898 9.796 9.797-7.6 7.595Z" fill="currentColor"/></symbol><symbol fill="none" viewBox="0 0 48 48" id="shop" xmlns="http://www.w3.org/2000/svg"><g clip-path="url(#aja)" fill="currentColor"><path opacity=".15" d="M43.65 13.75H4.35c-.018 0-.03.012-.03.03v5.405c0 3.544 2.94 6.419 6.558 6.419a6.593 6.593 0 0 0 5.706-3.242.993.993 0 0 1 1.716 0 6.576 6.576 0 0 0 5.7 3.242c2.448 0 4.584-1.31 5.706-3.254a.97.97 0 0 1 .834-.48h.036c.348 0 .66.183.834.48a6.586 6.586 0 0 0 5.712 3.254c3.618 0 6.558-2.875 6.558-6.42V13.78c0-.018-.012-.03-.03-.03Z"/><path d="M46.2 9.489V1.897C46.2.847 45.342 0 44.28 0H3.72C2.658 0 1.8.848 1.8 1.897v7.592c-1.002.06-1.8.883-1.8 1.89v7.806a10.38 10.38 0 0 0 .864 4.173c.258.604.576 1.173.936 1.712v20.448a1.91 1.91 0 0 0 1.92 1.897h40.56c1.062 0 1.92-.848 1.92-1.897V25.07c.366-.54.679-1.114.936-1.712.57-1.322.864-2.727.864-4.173V11.38a1.905 1.905 0 0 0-1.8-1.891ZM6.12 4.267h35.76v5.216H6.12V4.267Zm21.72 38.886h-7.68v-6.17h7.68v6.17Zm14.064 0H31.68v-8.066a1.906 1.906 0 0 0-1.92-1.897H18.24c-1.062 0-1.92.848-1.92 1.897v8.066H6.12V28.8c.174.082.354.165.54.236a10.93 10.93 0 0 0 4.224.836 11.004 11.004 0 0 0 6.546-2.146.039.039 0 0 1 .036 0c.716.53 1.496.97 2.322 1.31a10.93 10.93 0 0 0 4.224.836 11.004 11.004 0 0 0 6.546-2.146.039.039 0 0 1 .036 0c.716.53 1.496.97 2.322 1.31a10.93 10.93 0 0 0 4.224.836c1.464 0 2.88-.278 4.224-.835.18-.078.36-.155.54-.238v14.355Zm1.776-23.968c0 3.544-2.94 6.419-6.558 6.419a6.586 6.586 0 0 1-5.712-3.254.963.963 0 0 0-.834-.48h-.036a.97.97 0 0 0-.834.48 6.515 6.515 0 0 1-2.409 2.387 6.617 6.617 0 0 1-3.297.867 6.576 6.576 0 0 1-5.7-3.242.993.993 0 0 0-1.716 0 6.539 6.539 0 0 1-2.413 2.377 6.641 6.641 0 0 1-3.293.865c-3.618 0-6.558-2.875-6.558-6.419V13.78c0-.018.012-.03.03-.03h39.3c.018 0 .03.012.03.03v5.405Z"/></g><defs><clipPath id="aja"><path fill="#fff" d="M0 0h48v47.415H0z"/></clipPath></defs></symbol><symbol fill="none" viewBox="0 0 48 48" id="shop" xmlns="http://www.w3.org/2000/svg"><g clip-path="url(#aya)" fill="currentColor"><path opacity=".15" d="M43.65 13.75H4.35c-.018 0-.03.012-.03.03v5.405c0 3.544 2.94 6.419 6.558 6.419a6.593 6.593 0 0 0 5.706-3.242.993.993 0 0 1 1.716 0 6.576 6.576 0 0 0 5.7 3.242c2.448 0 4.584-1.31 5.706-3.254a.97.97 0 0 1 .834-.48h.036c.348 0 .66.183.834.48a6.586 6.586 0 0 0 5.712 3.254c3.618 0 6.558-2.875 6.558-6.42V13.78c0-.018-.012-.03-.03-.03Z"/><path d="M46.2 9.489V1.897C46.2.847 45.342 0 44.28 0H3.72C2.658 0 1.8.848 1.8 1.897v7.592c-1.002.06-1.8.883-1.8 1.89v7.806a10.38 10.38 0 0 0 .864 4.173c.258.604.576 1.173.936 1.712v20.448a1.91 1.91 0 0 0 1.92 1.897h40.56c1.062 0 1.92-.848 1.92-1.897V25.07c.366-.54.679-1.114.936-1.712.57-1.322.864-2.727.864-4.173V11.38a1.905 1.905 0 0 0-1.8-1.891ZM6.12 4.267h35.76v5.216H6.12V4.267Zm21.72 38.886h-7.68v-6.17h7.68v6.17Zm14.064 0H31.68v-8.066a1.906 1.906 0 0 0-1.92-1.897H18.24c-1.062 0-1.92.848-1.92 1.897v8.066H6.12V28.8c.174.082.354.165.54.236a10.93 10.93 0 0 0 4.224.836 11.004 11.004 0 0 0 6.546-2.146.039.039 0 0 1 .036 0c.716.53 1.496.97 2.322 1.31a10.93 10.93 0 0 0 4.224.836 11.004 11.004 0 0 0 6.546-2.146.039.039 0 0 1 .036 0c.716.53 1.496.97 2.322 1.31a10.93 10.93 0 0 0 4.224.836c1.464 0 2.88-.278 4.224-.835.18-.078.36-.155.54-.238v14.355Zm1.776-23.968c0 3.544-2.94 6.419-6.558 6.419a6.586 6.586 0 0 1-5.712-3.254.963.963 0 0 0-.834-.48h-.036a.97.97 0 0 0-.834.48 6.515 6.515 0 0 1-2.409 2.387 6.617 6.617 0 0 1-3.297.867 6.576 6.576 0 0 1-5.7-3.242.993.993 0 0 0-1.716 0 6.539 6.539 0 0 1-2.413 2.377 6.641 6.641 0 0 1-3.293.865c-3.618 0-6.558-2.875-6.558-6.419V13.78c0-.018.012-.03.03-.03h39.3c.018 0 .03.012.03.03v5.405Z"/></g><defs><clipPath id="aya"><path fill="#fff" d="M0 0h48v47.415H0z"/></clipPath></defs></symbol><symbol fill="none" viewBox="0 0 32 26" id="speedometer" xmlns="http://www.w3.org/2000/svg"><path d="m29.815 7.365-1.998 3.006a13 13 0 0 1-.358 12.317H4.937A13 13 0 0 1 22.015 4.57l3.007-2a16.25 16.25 0 0 0-22.88 21.743 3.25 3.25 0 0 0 2.795 1.625h22.506a3.25 3.25 0 0 0 2.827-1.625 16.25 16.25 0 0 0-.438-16.965l-.017.017ZM13.907 18.48a3.25 3.25 0 0 0 4.598 0l9.198-13.797-13.796 9.198a3.25 3.25 0 0 0 0 4.599Z" fill="#FF7B47"/></symbol><symbol fill="none" viewBox="0 0 32 26" id="speedometer" xmlns="http://www.w3.org/2000/svg"><path d="m29.815 7.365-1.998 3.006a13 13 0 0 1-.358 12.317H4.937A13 13 0 0 1 22.015 4.57l3.007-2a16.25 16.25 0 0 0-22.88 21.743 3.25 3.25 0 0 0 2.795 1.625h22.506a3.25 3.25 0 0 0 2.827-1.625 16.25 16.25 0 0 0-.438-16.965l-.017.017ZM13.907 18.48a3.25 3.25 0 0 0 4.598 0l9.198-13.797-13.796 9.198a3.25 3.25 0 0 0 0 4.599Z" fill="#FF7B47"/></symbol><symbol fill="none" viewBox="0 0 48 28" id="stats" xmlns="http://www.w3.org/2000/svg"><path d="M43.15 12.282a4.712 4.712 0 0 0-1.682.324l-5.74-4.785a6.214 6.214 0 0 0 .241-1.633c0-3.378-2.666-6.093-5.984-6.093S24 2.81 24 6.188c0 .966.24 1.865.628 2.674l-6.964 8.38a4.855 4.855 0 0 0-.845-.085c-.428 0-.833.073-1.226.18L9.458 11.09c.108-.397.18-.81.18-1.245 0-2.701-2.136-4.875-4.788-4.875S.063 7.144.063 9.845c0 2.7 2.135 4.874 4.787 4.874.429 0 .833-.073 1.226-.18l6.135 6.247a4.728 4.728 0 0 0-.18 1.246c0 2.7 2.136 4.875 4.788 4.875s4.788-2.175 4.788-4.875c0-.578-.115-1.122-.295-1.636l6.973-8.39c.544.161 1.106.276 1.7.276a5.85 5.85 0 0 0 2.712-.685l5.743 4.785c-.045.256-.071.515-.077.775 0 2.7 2.135 4.875 4.788 4.875 2.652 0 4.787-2.174 4.787-4.875 0-2.7-2.135-4.875-4.787-4.875Z" fill="currentColor"/></symbol><symbol fill="none" viewBox="0 0 48 28" id="stats" xmlns="http://www.w3.org/2000/svg"><path d="M43.15 12.282a4.712 4.712 0 0 0-1.682.324l-5.74-4.785a6.214 6.214 0 0 0 .241-1.633c0-3.378-2.666-6.093-5.984-6.093S24 2.81 24 6.188c0 .966.24 1.865.628 2.674l-6.964 8.38a4.855 4.855 0 0 0-.845-.085c-.428 0-.833.073-1.226.18L9.458 11.09c.108-.397.18-.81.18-1.245 0-2.701-2.136-4.875-4.788-4.875S.063 7.144.063 9.845c0 2.7 2.135 4.874 4.787 4.874.429 0 .833-.073 1.226-.18l6.135 6.247a4.728 4.728 0 0 0-.18 1.246c0 2.7 2.136 4.875 4.788 4.875s4.788-2.175 4.788-4.875c0-.578-.115-1.122-.295-1.636l6.973-8.39c.544.161 1.106.276 1.7.276a5.85 5.85 0 0 0 2.712-.685l5.743 4.785c-.045.256-.071.515-.077.775 0 2.7 2.135 4.875 4.788 4.875 2.652 0 4.787-2.174 4.787-4.875 0-2.7-2.135-4.875-4.787-4.875Z" fill="currentColor"/></symbol><symbol fill="none" viewBox="0 0 48 41" id="tool-box" xmlns="http://www.w3.org/2000/svg"><g clip-path="url(#ama)"><path d="M42.589 8.526h-5.07v-5.07a3.38 3.38 0 0 0-3.38-3.38H13.861a3.38 3.38 0 0 0-3.38 3.38v5.07h-5.07a5.07 5.07 0 0 0-5.07 5.07v23.657a3.38 3.38 0 0 0 3.38 3.38H44.28a3.38 3.38 0 0 0 3.38-3.38V13.595a5.07 5.07 0 0 0-5.07-5.07ZM13.86 3.456h20.278v5.07H13.861v-5.07Zm30.418 33.797H3.721V22.044H17.24v8.45h13.518v-8.45h13.52v15.21ZM20.62 22.044h6.76v5.07h-6.76v-5.07Zm-16.898-3.38v-5.069a1.69 1.69 0 0 1 1.69-1.69h37.177a1.69 1.69 0 0 1 1.69 1.69v5.07H3.721Z" fill="currentColor"/></g><defs><clipPath id="ama"><path fill="#fff" d="M0 0h48v40.709H0z"/></clipPath></defs></symbol><symbol fill="none" viewBox="0 0 48 41" id="tool-box" xmlns="http://www.w3.org/2000/svg"><g clip-path="url(#bba)"><path d="M42.589 8.526h-5.07v-5.07a3.38 3.38 0 0 0-3.38-3.38H13.861a3.38 3.38 0 0 0-3.38 3.38v5.07h-5.07a5.07 5.07 0 0 0-5.07 5.07v23.657a3.38 3.38 0 0 0 3.38 3.38H44.28a3.38 3.38 0 0 0 3.38-3.38V13.595a5.07 5.07 0 0 0-5.07-5.07ZM13.86 3.456h20.278v5.07H13.861v-5.07Zm30.418 33.797H3.721V22.044H17.24v8.45h13.518v-8.45h13.52v15.21ZM20.62 22.044h6.76v5.07h-6.76v-5.07Zm-16.898-3.38v-5.069a1.69 1.69 0 0 1 1.69-1.69h37.177a1.69 1.69 0 0 1 1.69 1.69v5.07H3.721Z" fill="currentColor"/></g><defs><clipPath id="bba"><path fill="#fff" d="M0 0h48v40.709H0z"/></clipPath></defs></symbol><symbol fill="none" viewBox="0 0 24 20" id="twitter-outlined" xmlns="http://www.w3.org/2000/svg"><g clip-path="url(#ana)"><path d="M24 2.465a9.74 9.74 0 0 1-2.829.772A4.96 4.96 0 0 0 23.332.49a9.613 9.613 0 0 1-3.117 1.205A4.902 4.902 0 0 0 18.58.526a4.84 4.84 0 0 0-1.956-.408c-2.723 0-4.913 2.24-4.913 4.988 0 .386.046.772.121 1.143a13.896 13.896 0 0 1-10.13-5.22 5.007 5.007 0 0 0-.668 2.518c0 1.731.867 3.257 2.19 4.155a4.901 4.901 0 0 1-2.222-.635v.062c0 2.424 1.688 4.432 3.939 4.894a5.133 5.133 0 0 1-1.294.17c-.32 0-.622-.032-.928-.076a4.931 4.931 0 0 0 4.593 3.459 9.756 9.756 0 0 1-6.1 2.131c-.412 0-.792-.015-1.187-.061a13.765 13.765 0 0 0 7.546 2.236c9.035 0 13.98-7.596 13.98-14.189 0-.216 0-.432-.015-.649.957-.71 1.795-1.59 2.463-2.579Z" fill="#21A6DF"/></g><defs><clipPath id="ana"><path fill="#fff" transform="translate(0 .118)" d="M0 0h24v19.765H0z"/></clipPath></defs></symbol><symbol fill="none" viewBox="0 0 24 20" id="twitter-outlined" xmlns="http://www.w3.org/2000/svg"><g clip-path="url(#bca)"><path d="M24 2.465a9.74 9.74 0 0 1-2.829.772A4.96 4.96 0 0 0 23.332.49a9.613 9.613 0 0 1-3.117 1.205A4.902 4.902 0 0 0 18.58.526a4.84 4.84 0 0 0-1.956-.408c-2.723 0-4.913 2.24-4.913 4.988 0 .386.046.772.121 1.143a13.896 13.896 0 0 1-10.13-5.22 5.007 5.007 0 0 0-.668 2.518c0 1.731.867 3.257 2.19 4.155a4.901 4.901 0 0 1-2.222-.635v.062c0 2.424 1.688 4.432 3.939 4.894a5.133 5.133 0 0 1-1.294.17c-.32 0-.622-.032-.928-.076a4.931 4.931 0 0 0 4.593 3.459 9.756 9.756 0 0 1-6.1 2.131c-.412 0-.792-.015-1.187-.061a13.765 13.765 0 0 0 7.546 2.236c9.035 0 13.98-7.596 13.98-14.189 0-.216 0-.432-.015-.649.957-.71 1.795-1.59 2.463-2.579Z" fill="#21A6DF"/></g><defs><clipPath id="bca"><path fill="#fff" transform="translate(0 .118)" d="M0 0h24v19.765H0z"/></clipPath></defs></symbol><symbol fill="none" viewBox="0 0 48 45" id="users-line" xmlns="http://www.w3.org/2000/svg"><g clip-path="url(#aoa)" fill="currentColor"><path d="M23.84 20.802c4.305 0 7.652-3.495 7.652-7.785s-3.507-7.626-7.81-7.626c-4.305 0-7.653 3.495-7.653 7.626 0 4.29 3.507 7.785 7.812 7.785ZM23.682 8.57c.16 0 .16 0 0 0 2.55 0 4.623 2.065 4.623 4.607 0 2.542-2.072 4.449-4.623 4.449a4.448 4.448 0 0 1-4.463-4.449c0-2.542 2.072-4.607 4.463-4.607ZM47.434 19.849c-3.03-2.701-7.015-4.131-11.16-3.972H35c-.319 1.27-.797 2.383-1.434 3.336.956-.159 1.753-.159 2.71-.159 3.028-.159 6.057.795 8.449 2.542v11.44h3.188v-12.71l-.478-.477ZM32.609 5.708c.797-1.906 3.029-2.86 5.101-2.065 1.913.794 2.87 3.019 2.072 5.084-.637 1.43-2.072 2.383-3.507 2.383-.319 0-.797 0-1.116-.159.16.795.16 1.59.16 2.225v.953c.319 0 .637.159.956.159 3.986 0 7.174-3.178 7.174-6.99 0-3.973-3.188-7.15-7.014-7.15-2.55 0-4.783 1.27-6.058 3.495.797.476 1.594 1.112 2.232 2.065ZM14.435 19.372c-.638-.953-1.116-2.065-1.434-3.336h-1.276A16.438 16.438 0 0 0 .566 19.849l-.478.477v12.71h3.188v-11.44c2.55-1.747 5.42-2.7 8.45-2.541.956 0 1.912.159 2.71.317ZM11.725 14.13c.319 0 .637 0 .956-.16v-.953c0-.794 0-1.588.16-2.224-.32.159-.797.159-1.116.159-2.073 0-3.826-1.748-3.826-3.813 0-2.066 1.753-3.813 3.826-3.813 1.594 0 3.029.953 3.666 2.383.638-.795 1.594-1.589 2.391-2.224C15.71.148 11.406-.965 8.058 1.1 4.71 3.167 3.594 7.457 5.667 10.793c1.275 2.066 3.507 3.337 6.058 3.337ZM36.913 29.382l-.319-.477c-3.188-3.495-7.652-5.56-12.434-5.402-4.783-.159-9.406 1.907-12.594 5.402l-.319.477v12.075c0 1.43 1.116 2.7 2.71 2.7h20.405c1.435 0 2.71-1.27 2.71-2.7V29.382h-.16ZM33.725 40.98h-19.29V30.494c2.551-2.542 6.058-3.813 9.725-3.813 3.507-.16 7.014 1.27 9.564 3.813V40.98Z"/></g><defs><clipPath id="aoa"><path fill="#fff" d="M0 0h48v44.211H0z"/></clipPath></defs></symbol><symbol fill="none" viewBox="0 0 48 45" id="users-line" xmlns="http://www.w3.org/2000/svg"><g clip-path="url(#bda)" fill="currentColor"><path d="M23.84 20.802c4.305 0 7.652-3.495 7.652-7.785s-3.507-7.626-7.81-7.626c-4.305 0-7.653 3.495-7.653 7.626 0 4.29 3.507 7.785 7.812 7.785ZM23.682 8.57c.16 0 .16 0 0 0 2.55 0 4.623 2.065 4.623 4.607 0 2.542-2.072 4.449-4.623 4.449a4.448 4.448 0 0 1-4.463-4.449c0-2.542 2.072-4.607 4.463-4.607ZM47.434 19.849c-3.03-2.701-7.015-4.131-11.16-3.972H35c-.319 1.27-.797 2.383-1.434 3.336.956-.159 1.753-.159 2.71-.159 3.028-.159 6.057.795 8.449 2.542v11.44h3.188v-12.71l-.478-.477ZM32.609 5.708c.797-1.906 3.029-2.86 5.101-2.065 1.913.794 2.87 3.019 2.072 5.084-.637 1.43-2.072 2.383-3.507 2.383-.319 0-.797 0-1.116-.159.16.795.16 1.59.16 2.225v.953c.319 0 .637.159.956.159 3.986 0 7.174-3.178 7.174-6.99 0-3.973-3.188-7.15-7.014-7.15-2.55 0-4.783 1.27-6.058 3.495.797.476 1.594 1.112 2.232 2.065ZM14.435 19.372c-.638-.953-1.116-2.065-1.434-3.336h-1.276A16.438 16.438 0 0 0 .566 19.849l-.478.477v12.71h3.188v-11.44c2.55-1.747 5.42-2.7 8.45-2.541.956 0 1.912.159 2.71.317ZM11.725 14.13c.319 0 .637 0 .956-.16v-.953c0-.794 0-1.588.16-2.224-.32.159-.797.159-1.116.159-2.073 0-3.826-1.748-3.826-3.813 0-2.066 1.753-3.813 3.826-3.813 1.594 0 3.029.953 3.666 2.383.638-.795 1.594-1.589 2.391-2.224C15.71.148 11.406-.965 8.058 1.1 4.71 3.167 3.594 7.457 5.667 10.793c1.275 2.066 3.507 3.337 6.058 3.337ZM36.913 29.382l-.319-.477c-3.188-3.495-7.652-5.56-12.434-5.402-4.783-.159-9.406 1.907-12.594 5.402l-.319.477v12.075c0 1.43 1.116 2.7 2.71 2.7h20.405c1.435 0 2.71-1.27 2.71-2.7V29.382h-.16ZM33.725 40.98h-19.29V30.494c2.551-2.542 6.058-3.813 9.725-3.813 3.507-.16 7.014 1.27 9.564 3.813V40.98Z"/></g><defs><clipPath id="bda"><path fill="#fff" d="M0 0h48v44.211H0z"/></clipPath></defs></symbol></svg>